<svg xmlns="http://www.w3.org/2000/svg" xmlns:xlink="http://www.w3.org/1999/xlink" xmlns:svgjs="http://svgjs.com/svgjs" version="1.1" width="1961.6500854492188" height="1387.46781539917"><g transform="scale(5) translate(30, 30)"> <defs id="SvgjsDefs5471"></defs><g xmlns:name="main_text" id="SvgjsG5472" rel="mainfill" name="main_text" transform="translate(10.039997100830078,-62.66642532348632)" fill="#ffffff" style="fill: #ffffff"><path d="M20.70 201.15C20.70 200.87 20.47 200.30 19.85 200.30L19.79 200.30C19.79 200.30 19.74 200.30 19.74 200.30L14.29 200.30C13.95 200.30 13.67 200.47 13.50 200.87L6.12 232.74C6.07 232.80 4.48 238.64 1.93 238.64C0.62 238.64 0.17 237.22 0.17 236.03C0.17 234.90 0.57 233.48 1.47 233.48C1.81 233.48 2.15 233.65 2.15 233.93C2.15 234.39 1.19 234.61 1.19 235.29C1.19 235.80 1.59 236.31 2.15 236.31C2.89 236.31 4.14 234.95 4.14 233.93C4.14 232.80 3.12 231.55 1.93 231.55C-0.40 231.55-1.70 233.65-1.70 235.75C-1.70 238.30-0.17 240.51 2.10 240.51C5.56 240.51 7.66 234.16 7.71 233.42L10.26 222.76L18.94 222.76L18.94 239.15C18.94 239.60 19.28 240 19.79 240L19.85 240C20.30 240 20.70 239.60 20.70 239.15L20.70 201.27C20.70 201.27 20.70 201.21 20.70 201.21ZM10.66 220.95L14.97 202.06L18.94 202.06L18.94 220.95ZM35.44 214.93L35.44 214.88C37.09 213.23 38.11 211.02 38.11 208.64C38.11 203.82 34.20 200.02 29.49 200.02C28.81 200.02 28.07 200.08 27.50 200.19L27.50 240L27.56 240.06C28.64 240.34 29.77 240.57 30.96 240.57C38.22 240.57 44.01 234.56 44.01 227.30C44.01 221.63 40.43 216.75 35.44 214.93ZM36.18 208.64C36.18 210.79 35.16 212.89 33.35 214.08L29.21 214.08L29.21 201.78C33.01 201.78 36.18 204.61 36.18 208.64ZM30.96 238.64C30.28 238.64 29.77 238.64 29.21 238.64L29.21 216.07C29.77 216.01 30.28 215.95 30.96 215.95C37.20 215.95 42.08 221.12 42.08 227.30C42.08 233.54 37.20 238.64 30.96 238.64ZM58.24 200.30L52.23 200.30C52.23 200.30 52.23 200.30 52.23 200.30L52.12 200.30C52.12 200.30 52.12 200.30 52.12 200.30L45.99 200.30C45.48 200.30 45.14 200.70 45.14 201.21L45.14 201.27C45.14 201.72 45.48 202.12 45.99 202.12L51.27 202.12L51.27 239.15C51.27 239.60 51.66 240 52.23 240C52.57 240 53.08 239.60 53.08 239.15L53.02 202.12L58.24 202.12C58.69 202.12 59.09 201.72 59.09 201.27L59.09 201.21C59.09 200.70 58.69 200.30 58.24 200.30ZM69.02 240.28C74.06 240.28 76.67 229.96 76.67 220.15C76.67 210.28 74.06 199.96 69.02 199.96C64.03 199.96 61.36 210.28 61.36 220.15C61.36 229.96 64.03 240.28 69.02 240.28ZM69.02 201.72C71.68 201.72 74.86 209.32 74.86 220.15C74.86 231.04 71.68 238.58 69.02 238.58C66.24 238.58 63.17 231.04 63.17 220.15C63.17 209.32 66.24 201.72 69.02 201.72ZM84.33 200.02C83.70 200.02 83.02 200.19 82.34 200.30L82.40 239.26C82.40 239.72 82.74 240.11 83.25 240.11L83.31 240.11C83.76 240.11 84.10 239.72 84.10 239.26L84.10 217.26C88.98 217.26 92.83 213.57 92.83 208.75C92.83 203.82 89.09 200.02 84.33 200.02ZM84.33 215.44C84.27 215.44 84.21 215.44 84.10 215.44L84.10 201.89C84.21 201.83 84.27 201.83 84.33 201.83C88.07 201.83 91.02 204.90 91.02 208.75C91.02 212.33 88.07 215.44 84.33 215.44ZM110.47 232.74C110.02 232.74 109.62 233.08 109.51 233.76C109.17 237.62 106.67 238.58 105.08 238.58C98.22 238.58 98.05 219.81 98.11 220.21C98.11 216.13 98.45 208.36 101.96 203.48C102.87 202.23 103.78 201.61 105.08 201.61C106.73 201.61 109.17 202.57 109.51 206.37C109.56 207.11 110.02 207.45 110.47 207.45C111.09 207.39 111.27 206.71 111.27 206.31C110.70 201.10 107.13 199.85 104.80 199.85C96.69 200.64 96.24 216.01 96.24 220.21C96.24 225.99 97.26 240.34 105.25 240.34C107.58 240.34 110.70 238.70 111.27 233.88C111.27 233.42 111.09 232.80 110.47 232.74ZM117.73 219.87C117.67 219.87 117.62 219.87 117.50 219.87L117.62 201.10C117.62 200.59 117.11 200.25 116.71 200.25L116.60 200.25C116.20 200.25 115.80 200.59 115.80 201.10L115.80 239.04C115.80 239.60 116.20 239.94 116.60 239.94L116.71 239.94C117.05 240 117.33 240 117.73 240C122.32 240 126.24 235.52 126.24 229.96C126.24 224.40 122.32 219.87 117.73 219.87ZM117.73 238.30C117.67 238.30 117.62 238.30 117.50 238.30L117.50 221.63C121.30 221.63 124.42 225.26 124.42 229.96C124.42 234.44 121.42 238.30 117.73 238.30ZM145.29 205.86C145.74 205.41 146.03 205.58 146.03 205.01C146.03 204.50 145.69 204.05 145.18 204.05C143.82 204.05 143.08 205.80 143.08 206.54C143.08 207.56 143.93 208.81 145.63 208.81C147.90 208.81 149.03 205.69 149.03 203.82C148.86 201.44 147.16 199.85 145.01 199.85C142.46 199.85 140.98 202.00 140.13 204.44L136.16 214.31L133.21 214.31L133.21 201.15C133.21 200.64 132.76 200.25 132.25 200.25C131.74 200.25 131.34 200.64 131.34 201.15L131.40 238.98C131.40 239.49 131.85 239.94 132.25 239.94L132.36 239.94C132.76 239.94 133.21 239.49 133.21 238.98L133.21 216.01L135.71 216.01L145.29 239.15C145.52 239.55 146.08 239.94 146.48 239.94L146.65 239.94C147.05 239.94 147.28 239.72 147.28 239.43C147.28 239.32 147.28 239.21 147.22 239.09L137.47 215.61C137.47 215.61 137.47 215.61 137.47 215.56L142.12 204.44C142.80 203.03 143.70 201.66 145.01 201.66C146.37 201.66 147.11 202.57 147.11 203.99C147.11 205.69 146.43 206.94 145.40 206.94C145.18 206.94 145.01 206.71 145.01 206.48C145.01 206.26 145.12 206.03 145.29 205.86ZM154.36 239.09L154.36 201.10C154.36 200.64 153.97 200.30 153.46 200.30C153.00 200.30 152.55 200.64 152.55 201.10L152.55 239.09C152.55 239.60 153.00 239.94 153.46 239.94C153.97 239.94 154.36 239.60 154.36 239.09ZM154.99 196.90C154.99 196.05 154.31 195.31 153.46 195.31C152.55 195.31 151.87 196.05 151.87 196.90C151.87 197.75 152.55 198.43 153.46 198.43C154.31 198.43 154.99 197.75 154.99 196.90ZM184.02 201.21C184.02 200.70 183.68 200.30 183.23 200.30L170.64 200.30C170.13 200.30 169.73 200.70 169.73 201.21L169.79 239.15C169.79 239.60 170.13 240.06 170.64 240.06L170.70 240.06C171.09 240.06 171.55 239.60 171.55 239.15L171.55 202.12L182.32 202.12L182.32 239.15C182.32 239.60 182.72 240.06 183.23 240.06C183.74 240.06 184.14 239.60 184.14 239.15ZM192.93 200.02C192.30 200.02 191.62 200.19 190.94 200.30L191.00 239.26C191.00 239.72 191.34 240.11 191.85 240.11L191.91 240.11C192.36 240.11 192.70 239.72 192.70 239.26L192.70 217.26C197.58 217.26 201.43 213.57 201.43 208.75C201.43 203.82 197.69 200.02 192.93 200.02ZM192.93 215.44C192.87 215.44 192.81 215.44 192.70 215.44L192.70 201.89C192.81 201.83 192.87 201.83 192.93 201.83C196.67 201.83 199.62 204.90 199.62 208.75C199.62 212.33 196.67 215.44 192.93 215.44ZM212.49 240.28C217.54 240.28 220.15 229.96 220.15 220.15C220.15 210.28 217.54 199.96 212.49 199.96C207.50 199.96 204.84 210.28 204.84 220.15C204.84 229.96 207.50 240.28 212.49 240.28ZM212.49 201.72C215.16 201.72 218.33 209.32 218.33 220.15C218.33 231.04 215.16 238.58 212.49 238.58C209.71 238.58 206.65 231.04 206.65 220.15C206.65 209.32 209.71 201.72 212.49 201.72ZM241.19 239.04C241.19 238.64 240.85 238.19 240.34 238.19L239.66 238.19L239.66 201.44L239.49 201.44C239.66 201.38 239.66 201.27 239.66 201.21L239.66 201.15C239.66 200.64 239.20 200.30 238.69 200.30L233.53 200.30C233.08 200.30 232.74 200.59 232.68 200.98L232.68 200.93L223.83 238.19L223.21 238.19C222.59 238.19 222.42 238.81 222.42 239.26C222.42 239.43 222.42 239.49 222.47 239.55L224.29 246.35C224.34 246.75 224.69 247.03 225.03 247.03C225.14 247.03 225.20 247.03 225.31 246.98L225.37 246.98C225.76 246.92 226.05 246.58 226.05 246.18C226.05 246.07 225.99 246.01 225.99 245.90L224.40 240L239.15 240L237.50 245.90C237.50 245.95 237.50 246.01 237.50 246.07C237.50 246.46 237.73 246.92 238.07 246.98L238.24 246.98C238.30 247.03 238.41 247.03 238.52 247.03C238.86 247.03 239.15 246.75 239.32 246.35L241.19 239.55C241.19 239.49 241.19 239.26 241.19 239.04ZM234.21 202.12L237.73 202.12L237.73 238.19L225.71 238.19ZM259.16 200.30C259.05 200.30 258.94 200.30 258.82 200.30C258.20 200.30 257.92 200.70 257.80 201.21L253.38 221.23L248.11 201.10C247.94 200.64 247.77 200.25 247.20 200.25C246.75 200.25 246.40 200.53 246.40 201.04C246.40 201.15 246.40 201.27 246.46 201.38L252.59 225.03C252.59 225.03 250.49 235.58 249.86 236.94C249.30 238.13 248.79 238.64 247.71 238.64C246.29 238.64 245.61 236.65 245.61 235.35C245.61 234.44 246.18 233.19 246.86 233.19C247.20 233.19 247.60 233.54 247.60 233.88C247.60 234.05 246.80 234.50 246.80 235.07C246.80 235.58 247.26 236.03 247.77 236.03C248.90 236.03 249.58 234.33 249.58 233.54C249.58 232.51 248.79 231.32 247.09 231.32C244.93 231.32 244.02 233.71 244.02 235.69C244.02 238.24 245.72 240.34 247.94 240.34C251.00 240.34 251.85 236.26 252.59 232.63L259.68 201.49C259.68 201.38 259.68 201.27 259.68 201.15C259.68 200.81 259.56 200.42 259.16 200.30ZM278.22 205.86C278.67 205.41 278.96 205.58 278.96 205.01C278.96 204.50 278.62 204.05 278.11 204.05C276.74 204.05 276.01 205.80 276.01 206.54C276.01 207.56 276.86 208.81 278.56 208.81C280.83 208.81 281.96 205.69 281.96 203.82C281.79 201.44 280.09 199.85 277.94 199.85C275.38 199.85 273.91 202.00 273.06 204.44L269.09 214.31L266.14 214.31L266.14 201.15C266.14 200.64 265.69 200.25 265.18 200.25C264.67 200.25 264.27 200.64 264.27 201.15L264.33 238.98C264.33 239.49 264.78 239.94 265.18 239.94L265.29 239.94C265.69 239.94 266.14 239.49 266.14 238.98L266.14 216.01L268.64 216.01L278.22 239.15C278.45 239.55 279.01 239.94 279.41 239.94L279.58 239.94C279.98 239.94 280.20 239.72 280.20 239.43C280.20 239.32 280.20 239.21 280.15 239.09L270.39 215.61C270.39 215.61 270.39 215.61 270.39 215.56L275.04 204.44C275.72 203.03 276.63 201.66 277.94 201.66C279.30 201.66 280.03 202.57 280.03 203.99C280.03 205.69 279.35 206.94 278.33 206.94C278.11 206.94 277.94 206.71 277.94 206.48C277.94 206.26 278.05 206.03 278.22 205.86ZM295.06 200.30L289.05 200.30C289.05 200.30 289.05 200.30 289.05 200.30L288.94 200.30C288.94 200.30 288.94 200.30 288.94 200.30L282.81 200.30C282.30 200.30 281.96 200.70 281.96 201.21L281.96 201.27C281.96 201.72 282.30 202.12 282.81 202.12L288.09 202.12L288.09 239.15C288.09 239.60 288.48 240 289.05 240C289.39 240 289.90 239.60 289.90 239.15L289.84 202.12L295.06 202.12C295.52 202.12 295.91 201.72 295.91 201.27L295.91 201.21C295.91 200.70 295.52 200.30 295.06 200.30ZM313.04 200.30C313.04 200.30 313.04 200.30 313.04 200.30C313.04 200.30 313.04 200.30 313.04 200.30L312.81 200.30C312.36 200.30 311.85 200.64 311.68 201.15L301.13 234.67L301.19 201.27C301.19 200.70 300.73 200.36 300.28 200.36C299.71 200.36 299.32 200.70 299.32 201.27L299.32 239.15C299.32 239.77 299.83 240 300.56 240C300.85 239.89 301.13 239.72 301.19 239.43L312.25 204.84L312.13 239.15C312.13 239.60 312.53 240 313.04 240C313.55 240 313.95 239.60 313.95 239.15L313.95 201.21C313.95 200.70 313.55 200.30 313.04 200.30Z" fill="#ffffff" style="fill: #ffffff"></path></g><g xmlns:name="slogan_text" id="SvgjsG5473" rel="mainfill" name="slogan_text" transform="translate(-1.5799999237060547,-26.236432647705072)" fill="#ffffff" style="fill: #ffffff"><path d="M1.58 220.85L1.58 240L4.51 240C5.63 240 6.60 239.91 7.52 239.20C8.84 238.19 9.10 236.50 9.10 234.89C9.10 232.59 8.75 230.87 6.29 230.18C8.15 229.29 8.64 227.69 8.64 225.73C8.64 224.39 8.32 222.38 7.18 221.51C6.37 220.91 5.37 220.85 4.36 220.85ZM3.36 229.32L3.36 222.40L4.48 222.40C6.77 222.40 6.83 223.98 6.83 225.82C6.83 227.71 6.60 229.32 4.31 229.32ZM3.36 238.48L3.36 230.90L4.39 230.90C6.69 230.90 7.26 232.91 7.26 234.83C7.26 236.99 6.75 238.48 4.31 238.48ZM16.30 240L16.30 220.85L14.52 220.85L14.52 240ZM23.48 220.85L23.48 231.16C23.48 233.08 23.51 235.01 22.62 236.53C22.27 237.13 21.73 237.82 20.84 238.36L20.84 243.73L22.50 243.73L22.50 240L30.34 240L30.34 243.73L32.12 243.73L32.12 238.36L30.63 238.36L30.63 220.85ZM25.14 222.49L28.85 222.49L28.85 238.36L23.14 238.36C23.80 237.67 24.31 236.84 24.66 235.72C24.97 234.66 25.14 233.14 25.14 229.92ZM46.41 220.85L46.41 240L49.34 240C50.46 240 51.44 239.91 52.36 239.20C53.68 238.19 53.93 236.50 53.93 234.89C53.93 232.59 53.59 230.87 51.12 230.18C52.99 229.29 53.48 227.69 53.48 225.73C53.48 224.39 53.16 222.38 52.01 221.51C51.21 220.91 50.20 220.85 49.20 220.85ZM48.19 229.32L48.19 222.40L49.31 222.40C51.61 222.40 51.67 223.98 51.67 225.82C51.67 227.71 51.44 229.32 49.14 229.32ZM48.19 238.48L48.19 230.90L49.23 230.90C51.52 230.90 52.10 232.91 52.10 234.83C52.10 236.99 51.58 238.48 49.14 238.48ZM68.29 230.36C68.29 227.14 68.09 220.60 63.58 220.60C59.16 220.60 58.87 227.28 58.87 230.44C58.87 233.63 59.13 240.26 63.61 240.26C68.17 240.26 68.29 233.57 68.29 230.36ZM66.48 229.72C66.48 231.19 66.45 232.62 66.31 234.09C66.16 235.72 65.76 238.54 63.61 238.54C60.62 238.54 60.68 232.42 60.68 230.41C60.68 228.37 60.62 222.32 63.61 222.32C66.45 222.32 66.48 227.77 66.48 229.72ZM75.06 220.85L75.06 233.11C75.06 234.14 75.03 234.89 74.95 236.01C74.86 236.73 74.80 237.45 74.37 237.99C74.11 238.31 73.80 238.45 73.40 238.45C73.05 238.45 72.74 238.36 72.36 238.02L72.36 239.89C72.79 240.11 73.11 240.17 73.57 240.17C74.34 240.17 74.86 240.03 75.43 239.45C76.27 238.56 76.44 237.47 76.55 236.58C76.75 235.18 76.73 233.83 76.73 232.36L76.73 222.49L80.63 222.49L80.63 240L82.41 240L82.41 220.85ZM97.33 230.36C97.33 227.14 97.13 220.60 92.63 220.60C88.21 220.60 87.92 227.28 87.92 230.44C87.92 233.63 88.18 240.26 92.66 240.26C97.22 240.26 97.33 233.57 97.33 230.36ZM95.53 229.72C95.53 231.19 95.50 232.62 95.35 234.09C95.21 235.72 94.81 238.54 92.66 238.54C89.67 238.54 89.73 232.42 89.73 230.41C89.73 228.37 89.67 222.32 92.66 222.32C95.50 222.32 95.53 227.77 95.53 229.72ZM104.05 220.85L104.05 231.16C104.05 233.08 104.08 235.01 103.19 236.53C102.85 237.13 102.30 237.82 101.41 238.36L101.41 243.73L103.08 243.73L103.08 240L110.91 240L110.91 243.73L112.69 243.73L112.69 238.36L111.20 238.36L111.20 220.85ZM105.72 222.49L109.42 222.49L109.42 238.36L103.71 238.36C104.37 237.67 104.88 236.84 105.23 235.72C105.54 234.66 105.72 233.14 105.72 229.92ZM117.43 240L119.21 240L123.20 227.31C123.43 226.71 123.51 226.48 123.97 224.61C123.89 225.39 123.80 226.62 123.80 227.63L123.80 240L125.58 240L125.58 220.85L123.80 220.85L119.72 233.91C119.49 234.52 119.41 234.89 119.04 236.24C119.15 235.18 119.21 234.49 119.21 233.83L119.21 220.85L117.43 220.85ZM143.72 240L141.37 220.85L139.85 220.85L137.61 234.06C137.43 235.03 137.32 236.01 137.26 237.01C137.18 236.01 137.03 235.01 136.89 234.00L134.82 220.85L133.30 220.85L130.60 240L132.35 240L133.90 227.54C134.02 226.62 134.08 225.71 134.08 224.76L134.08 224.10C134.16 224.64 134.10 225.16 134.19 225.71C134.74 230.53 135.68 235.21 136.46 240L137.92 240L140.05 227.57C140.25 226.42 140.36 225.27 140.45 224.10C140.53 225.25 140.51 226.42 140.62 227.57L141.97 240ZM148.77 240L150.55 240L154.54 227.31C154.77 226.71 154.86 226.48 155.32 224.61C155.23 225.39 155.14 226.62 155.14 227.63L155.14 240L156.92 240L156.92 220.85L155.14 220.85L151.07 233.91C150.84 234.52 150.75 234.89 150.38 236.24C150.49 235.18 150.55 234.49 150.55 233.83L150.55 220.85L148.77 220.85ZM162.92 220.85L162.92 240L164.70 240L164.70 230.84L165.42 230.84C168.78 230.84 170.07 229.52 170.07 226.16C170.07 222.55 169.07 220.85 165.22 220.85ZM164.70 229.21L164.70 222.49L165.56 222.49C167.86 222.49 168.26 223.84 168.26 225.82C168.26 227.63 168.09 229.21 165.88 229.21ZM182.96 240L179.14 220.85L177.48 220.85L173.69 240L175.58 240L176.30 236.07L180.35 236.07L181.06 240ZM180.06 234.52L176.59 234.52C177.25 230.76 177.99 227.08 178.25 223.27C178.34 224.79 178.48 226.28 178.80 227.77ZM204.63 240L200.47 229.98L204.60 220.85L202.62 220.85L198.77 229.55L198.77 220.85L196.99 220.85L196.99 240L198.77 240L198.77 230.36L202.62 240ZM218.24 230.36C218.24 227.14 218.03 220.60 213.53 220.60C209.11 220.60 208.82 227.28 208.82 230.44C208.82 233.63 209.08 240.26 213.56 240.26C218.12 240.26 218.24 233.57 218.24 230.36ZM216.43 229.72C216.43 231.19 216.40 232.62 216.26 234.09C216.11 235.72 215.71 238.54 213.56 238.54C210.57 238.54 210.63 232.42 210.63 230.41C210.63 228.37 210.57 222.32 213.56 222.32C216.40 222.32 216.43 227.77 216.43 229.72ZM231.70 240L231.70 220.85L229.92 220.85L229.92 228.49L225.56 228.49L225.56 220.85L223.78 220.85L223.78 240L225.56 240L225.56 230.13L229.92 230.13L229.92 240ZM238.87 220.85L238.87 231.16C238.87 233.08 238.90 235.01 238.01 236.53C237.67 237.13 237.12 237.82 236.23 238.36L236.23 243.73L237.90 243.73L237.90 240L245.73 240L245.73 243.73L247.51 243.73L247.51 238.36L246.02 238.36L246.02 220.85ZM240.54 222.49L244.24 222.49L244.24 238.36L238.53 238.36C239.19 237.67 239.71 236.84 240.05 235.72C240.37 234.66 240.54 233.14 240.54 229.92ZM252.25 220.85L252.25 240L254.03 240L254.03 230.84L254.75 230.84C258.11 230.84 259.40 229.52 259.40 226.16C259.40 222.55 258.39 220.85 254.55 220.85ZM254.03 229.21L254.03 222.49L254.89 222.49C257.19 222.49 257.59 223.84 257.59 225.82C257.59 227.63 257.42 229.21 255.21 229.21ZM272.29 240L268.47 220.85L266.80 220.85L263.01 240L264.91 240L265.63 236.07L269.67 236.07L270.39 240ZM269.39 234.52L265.91 234.52C266.57 230.76 267.32 227.08 267.58 223.27C267.66 224.79 267.81 226.28 268.12 227.77ZM282.73 222.49L282.73 220.85L275.21 220.85L275.21 222.49L278.08 222.49L278.08 240L279.86 240L279.86 222.49ZM293.21 240L293.21 238.36L289.02 238.36L289.02 230.87L293.10 230.87L293.10 229.24L289.02 229.24L289.02 222.49L293.21 222.49L293.21 220.85L287.24 220.85L287.24 240ZM306.67 240L306.67 220.85L304.89 220.85L304.89 228.49L300.53 228.49L300.53 220.85L298.75 220.85L298.75 240L300.53 240L300.53 230.13L304.89 230.13L304.89 240ZM320.31 240L316.14 229.98L320.28 220.85L318.30 220.85L314.45 229.55L314.45 220.85L312.67 220.85L312.67 240L314.45 240L314.45 230.36L318.30 240ZM333.91 230.36C333.91 227.14 333.71 220.60 329.21 220.60C324.78 220.60 324.50 227.28 324.50 230.44C324.50 233.63 324.76 240.26 329.23 240.26C333.80 240.26 333.91 233.57 333.91 230.36ZM332.10 229.72C332.10 231.19 332.08 232.62 331.93 234.09C331.79 235.72 331.39 238.54 329.23 238.54C326.25 238.54 326.31 232.42 326.31 230.41C326.31 228.37 326.25 222.32 329.23 222.32C332.08 222.32 332.10 227.77 332.10 229.72Z" fill="#ffffff" style="fill: #ffffff"></path></g><g xmlns:name="symbol_mainfill" id="SvgjsG5474" rel="mainfill" name="symbol" transform="translate(106.0956579208374,-2.506615734100342) scale(1.35)" fill="#ffffff" style="fill: #ffffff"><foreignobject requiredextensions="http://ns.adobe.com/AdobeIllustrator/10.0/" x="0" y="0" width="1" height="1"></foreignobject><g fill="#ffffff" style="fill: #ffffff"><g fill="#ffffff" style="fill: #ffffff"><path fill-rule="evenodd" clip-rule="evenodd" fill="#ffffff" d="M36.183,4.958c3.089-1.885,4.409-0.804,5.113,2.334     c1.322,5.879,1.334,11.786,0.985,17.74c-0.327,5.647,0.032,5.878,5.149,3.597c4.812-2.141,9.629-4.019,15.072-3.916     c14.133,0.262,22.945,10.121,20.862,24.092c-2.049,13.748-7.748,25.83-17.942,35.524c-4.983,4.737-9.216,6.556-15.546,2.195     c-2.868-1.978-5.961-1.445-8.674-0.071c-5.988,3.032-10.983,1.676-16.25-2.004C15.205,77.648,7.694,69.462,5.864,57.256     C4.815,50.25,5.271,43.261,7.434,36.5c3.212-10.045,11.858-14.103,22.293-10.563c2.75,0.935,5.403,2.166,8.095,3.278     c3.365,1.391,4.32,0.718,3.844-2.845c-0.489-3.692-1.011-7.377-1.624-11.049C39.427,11.631,37.804,8.27,36.183,4.958z      M27.945,46.792c-0.743,3.052-0.068,4.637,1.915,5.519c2.154,0.955,3.905-0.029,5.356-1.474c2.868-2.85,2.409-6.98-0.923-9.34     c-5.687-4.028-13.499-1.468-15.694,5.142c-1.878,5.654,1.154,11.549,7.425,14.423c6.305,2.89,12.879,1.115,16.293-4.399     c5.37-8.671,2.736-20.698-5.776-26.388c-6.75-4.515-17.945-4.071-22.483,1.137c-4.832,5.535-6.995,12.293-6.376,19.46     c1.308,15.132,9.363,26.001,22.595,33.161c3.412,1.847,6.604,1.664,9.688-0.984c3.378-2.9,5.698-2.909,9.494-0.475     c0.69,0.438,1.357,0.909,2.018,1.391c2.751,2.013,5.18,1.81,7.85-0.47c3.658-3.122,7.083-6.46,10.071-10.185     c6.661-8.3,11.193-17.402,10.426-28.51c-0.738-10.677-10.72-19.183-21.081-17.547c-4.19,0.661-7.782,2.621-10.567,5.841     c1.967-0.522,3.717-1.449,5.536-2.201c12.368-5.099,23.333,2.021,22.686,15.359c-0.61,12.544-6.809,22.534-16.62,30.307     c-3.073,2.434-6.311,3.358-10.045,1.577c-3.358-1.602-6.693-1.714-10.056,0.139c-3.608,1.983-7.144,1.317-10.667-0.465     c-9.716-4.917-16.825-20.52-14.12-31.145c1.804-7.095,7.245-11.311,13.95-10.589c4.848,0.521,8.938,2.984,10.535,7.268     c1.331,3.569-0.669,9.535-4.215,11.187c-2.532,1.179-4.849,1.56-7.377-0.527C25.728,52.311,25.919,48.856,27.945,46.792z" style="fill: #ffffff"></path><path fill-rule="evenodd" clip-rule="evenodd" fill="#ffffff" d="M44.928,25.805C45.162,9.821,58.461-0.757,73.716,2.421     c1.662,0.347,2.406,0.844,1.864,2.795c-2.166,7.816-6.624,13.232-14.833,15.108C55.343,21.561,49.58,21.709,44.928,25.805z" style="fill: #ffffff"></path></g></g></g> </g></svg>
